<?xml version="1.0" encoding="iso-8859-1"?>
<!-- Generator: Adobe Illustrator 19.0.0, SVG Export Plug-In . SVG Version: 6.00 Build 0)  -->
<svg version="1.1" id="Layer_1" xmlns="http://www.w3.org/2000/svg" xmlns:xlink="http://www.w3.org/1999/xlink" x="0px" y="0px"
	 viewBox="0 0 480 480" style="enable-background:new 0 0 480 480;" xml:space="preserve">
<g>
	<g>
		<g>
			<path d="M39.993,69.998c5.523,0,10-4.477,10-10V20h40.005c5.523,0,10-4.477,10-10s-4.477-10-10-10H39.993
				c-5.523,0-10,4.477-10,10v49.998C29.993,65.521,34.47,69.998,39.993,69.998z"/>
			<path d="M440.007,0h-49.998c-5.522,0-10,4.477-10,10s4.478,10,10,10h39.998v39.998c0,5.523,4.478,10,10,10
				c5.523,0,10-4.477,10-10V10C450.007,4.477,445.53,0,440.007,0z"/>
			<path d="M89.998,460H49.993v-39.998c0-5.523-4.477-10-10-10c-5.523,0-10,4.477-10,10V470c0,5.523,4.477,10,10,10h50.005
				c5.523,0,10-4.477,10-10S95.521,460,89.998,460z"/>
			<path d="M440.007,410.002c-5.522,0-10,4.477-10,10V460h-39.998c-5.522,0-10,4.477-10,10s4.478,10,10,10h49.998
				c5.523,0,10-4.477,10-10v-49.998C450.007,414.479,445.53,410.002,440.007,410.002z"/>
			<path d="M63.168,339.815c1.786,3.081,5.074,4.979,8.635,4.985l337.341,0.569c0.006,0,0.011,0,0.017,0
				c3.602,0,6.925-1.936,8.7-5.071c1.779-3.139,1.729-6.993-0.131-10.084L313.077,156.247c-1.587-2.637-4.299-4.397-7.354-4.771
				c-3.049-0.374-6.111,0.679-8.287,2.856L224.094,227.7l-53.246-59.97c-2.139-2.41-5.31-3.642-8.514-3.307
				c-3.205,0.334-6.053,2.191-7.65,4.99L63.135,329.844C61.37,332.936,61.383,336.734,63.168,339.815z M165.148,191.432
				l51.038,57.483c1.829,2.061,4.428,3.275,7.183,3.357c2.738,0.085,5.42-0.977,7.368-2.926l71.799-71.825l88.923,147.819
				l-302.434-0.51L165.148,191.432z"/>
			<path d="M217.464,174.262c24.348,0,44.155-19.828,44.155-44.2c0-24.339-19.808-44.141-44.155-44.141
				c-24.36,0-44.178,19.801-44.178,44.141C173.286,154.434,193.104,174.262,217.464,174.262z M217.464,105.921
				c13.319,0,24.155,10.83,24.155,24.141c0,13.344-10.836,24.2-24.155,24.2c-13.332,0-24.178-10.856-24.178-24.2
				C193.286,116.751,204.133,105.921,217.464,105.921z"/>
		</g>
	</g>
</g>
<g>
</g>
<g>
</g>
<g>
</g>
<g>
</g>
<g>
</g>
<g>
</g>
<g>
</g>
<g>
</g>
<g>
</g>
<g>
</g>
<g>
</g>
<g>
</g>
<g>
</g>
<g>
</g>
<g>
</g>
</svg>
