<?xml version="1.0" encoding="UTF-8" standalone="yes"?>
<!DOCTYPE svg PUBLIC "-//W3C//DTD SVG 1.0//EN" "http://www.w3.org/TR/2001/REC-SVG-20010904/DTD/svg10.dtd">
<!-- Created with Inkscape (http://www.inkscape.org/) --><svg xmlns:svg="http://www.w3.org/2000/svg" xmlns="http://www.w3.org/2000/svg" version="1.0" width="300" height="220" id="svg2708" style="zoom: 1;"><defs id="defs2710"></defs><g transform="translate(-418.79418,-223.00132)" id="layer1"><g transform="matrix(4.1709365,0,0,4.1709365,-1322.9695,-1389.3269)" id="g3560" style="fill:#990000;fill-opacity:1;stroke:none"><path d="M485.52912,407.74812 L485.72787,405.68437 L482.39037,405.68437 C481.45787,405.68437 481.07412,405.23937 481.12662,404.70812 C481.14162,404.54812 481.14912,404.46312 481.17162,404.37812 L478.59787,404.36812 C478.52412,405.14312 478.93037,405.63187 479.78162,405.79062 L479.78037,405.81187 L478.65037,405.81187 L478.48662,407.74812 L485.52912,407.74812  z M486.09787,401.83812 L476.40287,401.83812 L476.20412,403.88562 L485.90037,403.88562 L486.09787,401.83812  z M478.78787,399.07562 L476.57662,399.07562 L476.36537,401.13812 L478.57912,401.13812 L478.78787,399.07562  z M486.36537,399.07562 L479.38787,399.07562 L479.17912,401.13812 L486.15537,401.13812 L486.36537,399.07562  z M474.76662,420.54812 L480.72537,420.54812 C483.00412,420.54812 484.49912,419.24687 484.66787,417.41062 C484.81412,415.83187 483.62662,414.39437 481.22787,414.39437 C479.44037,414.39437 477.53662,415.53312 477.38912,417.11437 C477.33412,417.71062 477.48037,417.99687 477.70912,418.40562 L474.94037,418.40562 L474.76662,420.54812  z M482.05287,408.69937 C482.69787,409.13312 483.09662,410.05937 483.04037,410.65562 C483.02162,410.85562 482.97037,411.12062 482.86412,411.27562 L480.44287,408.31437 C479.05162,408.78812 478.07912,409.79562 477.95787,411.11062 C477.80537,412.74562 479.09537,414.09437 481.48162,414.09437 C483.40287,414.09437 485.10537,412.82437 485.27287,411.03312 C485.37287,409.94937 485.18287,409.42812 484.63912,408.53312 L482.05287,408.69937  z M479.45287,398.17937 L486.44037,398.17937 L486.65662,396.08062 L482.53537,396.08062 C482.21412,396.08062 481.68662,395.97937 481.68662,395.55062 C481.68662,395.11687 482.12912,395.00062 482.40912,395.00062 L486.75662,395.00062 L486.95662,392.91687 L482.34287,392.91687 C480.99662,392.91687 479.75037,393.42937 479.65037,394.52187 C479.60287,395.05187 479.91287,395.69312 480.58037,396.12437 L480.57662,396.16687 L479.65662,396.16687 L479.45287,398.17937  z M472.13162,391.37562 L488.32287,391.37562 L485.32287,422.52312 C484.94412,431.57937 477.48037,438.80562 468.32912,438.80562 L467.56287,438.80062 L472.13162,391.37562  z M480.92162,418.40562 C480.33662,418.40562 479.86037,418.06437 479.90912,417.54437 C479.95537,417.03687 480.49412,416.69312 481.08162,416.69312 C481.66787,416.69312 482.14287,417.03687 482.09537,417.54437 C482.04787,418.06437 481.51037,418.40562 480.92162,418.40562  z M481.62787,411.93812 C481.50412,411.98312 481.42037,412.02812 481.12662,412.02812 C480.52662,412.02812 479.96162,411.66312 480.01037,411.13312 C480.03662,410.85562 480.12287,410.63437 480.42037,410.45812 L481.62787,411.93812 " id="path2702" style="fill: #808080;fill-opacity:1;fill-rule:nonzero;stroke:none;stroke-opacity:1"></path><path d="M469.844116,395.879364 L465.73288,438.643127 C456.582855,437.043121 450.419128,432.299377 451.246613,423.433105 L451.241608,423.414368 L453.206635,402.993134 L426.695374,402.993134 C422.32663,402.960632 418.794128,399.408112 418.794128,395.030609 C418.794128,390.654358 422.32663,387.101868 426.695374,387.065613 L461.945374,387.065613 C466.335358,387.078125 469.88913,390.638123 469.88913,395.030609 C469.88913,395.316864 469.872864,395.600616 469.844116,395.879364 " id="path2704" style="fill: #808080;fill-opacity:1;fill-rule:nonzero;stroke:none;stroke-opacity:1"></path><path d="M435.001617,404.756866 L449.54538,404.756866 L446.676605,434.539368 L432.132874,434.539368 L435.001617,404.756866 " id="path2706" style="fill: #808080;fill-opacity:1;fill-rule:nonzero;stroke:none;stroke-opacity:1"></path></g></g></svg>